<?xml version="1.0" encoding="UTF-8"?>
<svg id="Layer_1" data-name="Layer 1" xmlns="http://www.w3.org/2000/svg" viewBox="0 0 769.95 326.15">
  <defs>
    <style>
      .cls-1 {
        fill: #44464d;
      }

      .cls-1, .cls-2 {
        stroke-width: 0px;
      }

      .cls-2 {
        fill: #d3d7e0;
      }
    </style>
  </defs>
  <g>
    <path class="cls-2" d="m39.57,306.48c0,3.9-1.02,7.03-3.06,9.42-2,2.37-4.68,3.57-8.07,3.57h-8.44c-3.39,0-6.07-1.25-8.13-3.8-2.02-2.49-3.06-5.8-3.06-9.97v-15.42c0-4.13,1.06-7.46,3.17-10.01,2.14-2.49,4.92-3.72,8.29-3.72h8.35c3.25,0,5.84,1.04,7.8,3.19,2,2.17,2.96,5,2.96,8.52h7.29c0-3.59-.74-6.84-2.21-9.58-1.49-2.78-3.62-4.96-6.39-6.5-2.74-1.55-5.9-2.31-9.46-2.31h-8.35c-3.76,0-7.07.82-9.95,2.49-2.84,1.67-5.07,4.04-6.64,7.13-1.55,3.04-2.35,6.62-2.35,10.66v15.69c0,4.04.76,7.62,2.33,10.66,1.53,3.08,3.74,5.43,6.56,7.13,2.84,1.67,6.09,2.51,9.78,2.51h8.44c3.7,0,6.92-.84,9.7-2.43,2.78-1.65,4.9-3.94,6.45-6.92,1.51-3,2.25-6.41,2.25-10.32h-7.27Z"/>
    <path class="cls-2" d="m149.24,277.01v-6.52h-38.63v49.12c0,1.86.53,3.29,1.63,4.35,1.06,1.04,2.53,1.53,4.35,1.53h32.64v-6.52h-31.15v-18.4h28.78v-6.43h-28.78v-17.14h31.15Z"/>
    <path class="cls-2" d="m252.78,311.04c-1.53-4.86-3.84-8.21-6.92-10.05v-.06c2.96-.92,5.25-2.47,6.94-4.53,1.74-2.12,2.57-4.53,2.57-7.27v-5.66c0-3.9-1.33-7.01-3.92-9.42-2.57-2.37-6.01-3.55-10.23-3.55h-27.64v55.01h7.52v-22.06h15.09c2.02,0,3.84.71,5.43,2.14,1.61,1.39,2.78,3.33,3.49,5.8l4.25,14.11h7.7l-4.29-14.46Zm-13.62-14.22h-18.06v-19.71h19.98c2,0,3.66.55,4.94,1.7,1.25,1.21,1.88,2.7,1.88,4.56v5.76c0,2.31-.78,4.19-2.39,5.6-1.61,1.39-3.72,2.1-6.35,2.1Z"/>
    <path class="cls-2" d="m345.45,274.17c-.92-2.47-2.51-3.68-4.78-3.68h-3.39l-21.32,55.01h7.78l5.35-14.46h23l5.37,14.46h7.74l-19.75-51.33Zm-14.16,30.62l9.31-24.86h.06l9.19,24.86h-18.57Z"/>
    <path class="cls-2" d="m472.05,270.49l-18.65,35.32-19.1-35.32h-6.92v55.01h7.39v-41.02l16.59,30.17h2.14c.69,0,1.35-.2,1.92-.67.53-.49,1.14-1.29,1.78-2.45l14.46-27.04v41.02h7.31v-55.01h-6.92Z"/>
    <path class="cls-2" d="m546.51,270.49v55.01h7.48v-55.01h-7.48Z"/>
    <path class="cls-2" d="m658.13,306.48c0,3.9-1,7.03-3.02,9.42-2.02,2.37-4.68,3.57-8.07,3.57h-8.5c-3.33,0-6.03-1.25-8.09-3.8-2.02-2.49-3.08-5.8-3.08-9.97v-15.42c0-4.13,1.08-7.46,3.23-10.01,2.12-2.49,4.88-3.72,8.27-3.72h8.31c3.27,0,5.88,1.04,7.84,3.19,1.96,2.17,2.96,5,2.96,8.52h7.31c0-3.59-.76-6.84-2.27-9.58-1.47-2.78-3.6-4.96-6.35-6.5-2.78-1.55-5.9-2.31-9.5-2.31h-8.31c-3.76,0-7.11.82-9.93,2.49-2.9,1.67-5.09,4.04-6.66,7.13-1.57,3.04-2.35,6.62-2.35,10.66v15.69c0,4.04.78,7.62,2.31,10.66,1.53,3.08,3.72,5.43,6.56,7.13,2.84,1.67,6.07,2.51,9.74,2.51h8.5c3.7,0,6.88-.84,9.66-2.43,2.8-1.65,4.94-3.94,6.43-6.92,1.55-3,2.31-6.41,2.31-10.32h-7.31Z"/>
    <path class="cls-2" d="m766.43,299.84c-2.31-2.1-5.66-3.53-10.03-4.27l-14.13-2.45c-2.23-.43-3.9-1.16-5.07-2.27-1.18-1.1-1.8-2.49-1.8-4.19v-3.51c0-2.06.86-3.66,2.47-4.86,1.65-1.16,3.82-1.74,6.52-1.74h8.89c2.51,0,4.53.78,6.05,2.37,1.51,1.61,2.31,3.72,2.31,6.33h7.37c0-3.04-.67-5.72-1.96-8.03-1.33-2.37-3.17-4.19-5.58-5.43-2.39-1.29-5.11-1.92-8.19-1.92h-8.89c-4.92,0-8.93,1.16-11.93,3.55-3,2.37-4.51,5.51-4.51,9.48v4.31c0,3.31,1.14,6.09,3.41,8.27,2.27,2.23,5.54,3.64,9.72,4.31l14.3,2.39c2.27.35,4,1.08,5.25,2.17,1.21,1.12,1.84,2.49,1.84,4.09v4.25c0,2.06-.84,3.72-2.59,4.92-1.74,1.25-4.02,1.86-6.92,1.86h-8.74c-2.9,0-5.19-.92-6.97-2.74-1.74-1.86-2.61-4.31-2.61-7.39h-7.27c0,5.11,1.49,9.21,4.56,12.24,3.02,3.06,7.09,4.58,12.17,4.58h9.01c5.09,0,9.19-1.18,12.21-3.62,3.08-2.43,4.64-5.62,4.64-9.58v-5.15c0-3.19-1.21-5.82-3.51-7.97Z"/>
  </g>
  <path class="cls-2" d="m235.13,5.89v223.36c0,3.25-2.63,5.88-5.88,5.88H5.88c-1.65,0-3.14-.68-4.21-1.78-1.03-1.07-1.67-2.5-1.67-4.1V5.89C0,2.64,2.63,0,5.88,0h223.38c1.25,0,2.43.4,3.38,1.08,1.51,1.05,2.5,2.81,2.5,4.8Z"/>
  <g>
    <polygon class="cls-1" points="93.9 0 0 187.8 0 195.55 97.78 0 93.9 0"/>
    <polygon class="cls-1" points="77.18 0 0 154.38 0 146.6 73.31 0 77.18 0"/>
    <polygon class="cls-1" points="56.61 0 0 113.2 0 105.43 52.71 0 56.61 0"/>
    <polygon class="cls-1" points="36.01 0 0 72.01 0 64.26 32.13 0 36.01 0"/>
    <polygon class="cls-1" points="15.41 0 0 30.84 0 23.09 11.54 0 15.41 0"/>
    <path class="cls-1" d="m190.21,0c-.2.26-.46.46-.77.57-4.57,1.76-9.33,3.34-14.13,4.69-14.77,4.19-29.97,6.3-45.23,6.3-1.84,0-3.67-.04-5.49-.09-.97-.04-1.73-.85-1.69-1.8.04-.96.79-1.75,1.8-1.67,16.76.53,33.47-1.49,49.68-6.08,2.11-.59,4.19-1.23,6.27-1.91h9.57Z"/>
    <path class="cls-1" d="m232.63,1.09c-1.95,1.38-3.99,2.7-6.03,3.99-26.68,16.66-57.21,25.43-88.52,25.43-1.32,0-2.66-.02-4.01-.04-.96-.04-1.71-.83-1.69-1.78.02-.96.73-1.75,1.78-1.69,32.06.72,63.35-7.85,90.58-24.88,1.1-.68,2.2-1.4,3.29-2.11h1.21c1.25,0,2.43.4,3.38,1.08Z"/>
    <path class="cls-1" d="m235.13,23.71c-26.81,16.88-57.52,25.78-89.09,25.78-.81,0-1.62,0-2.44-.02-.96,0-1.73-.79-1.71-1.76.02-.94.79-1.71,1.75-1.71h.02c32.32.46,63.72-8.54,90.94-26.05.17-.11.35-.2.53-.24v4.01Z"/>
    <path class="cls-1" d="m235.13,47.41c-24.8,13.78-52.75,21.04-81.04,21.04h-.97c-.97,0-1.75-.79-1.73-1.75,0-.96.77-1.73,1.73-1.73.29-.02.66,0,.97,0,28.17,0,56-7.35,80.58-21.29.15-.07.31-.13.46-.17v3.9Z"/>
    <path class="cls-1" d="m235.13,70.54c-22.49,10.95-47.55,16.77-72.52,16.88h-.02c-.96,0-1.73-.77-1.73-1.73s.77-1.75,1.73-1.75c24.88-.11,49.83-6.03,72.17-17.1.13-.06.24-.11.37-.15v3.84Z"/>
    <path class="cls-1" d="m235.13,93.14c-20.06,8.51-41.27,12.95-63.02,13.23h-.04c-.94,0-1.71-.75-1.73-1.71-.02-.96.75-1.75,1.71-1.76,21.7-.28,42.81-4.78,62.78-13.41.09-.04.2-.07.29-.07v3.73Z"/>
    <path class="cls-1" d="m235.13,111.57v3.67c-17.21,6.28-35.24,9.66-53.56,10.05h-.04c-.94,0-1.71-.75-1.73-1.71-.04-.96.73-1.75,1.69-1.76,18.28-.39,36.27-3.8,53.43-10.2.07-.02.13-.04.2-.06Z"/>
    <path class="cls-1" d="m235.13,133.28v3.58c-30.02,7.79-72.7,11.89-111.54,11.89-30.2,0-58.04-2.48-75.82-7.59L.79,235.12h-.79v-6.19L114.46,0h3.89L49.35,138.01c40.71,11.41,133.24,9.17,185.75-4.72h.04Z"/>
    <path class="cls-1" d="m235.13,154.54v3.56c-11.28,2.9-22.93,4.59-34.61,5.03h-.06c-.94,0-1.71-.73-1.75-1.67-.04-.96.72-1.76,1.67-1.8,11.72-.46,23.39-2.19,34.71-5.13h.04Z"/>
    <path class="cls-1" d="m235.13,175.34v3.55c-8.23,1.71-16.68,2.76-25.13,3.16h-.07c-.94,0-1.71-.73-1.75-1.67-.04-.96.7-1.76,1.65-1.8,8.51-.4,17.03-1.49,25.3-3.23Z"/>
    <path class="cls-1" d="m235.13,195.77c-5.25.83-10.58,1.4-15.87,1.69-.96.06-1.69.86-1.64,1.84.04.92.81,1.64,1.73,1.64h.09c5.24-.29,10.49-.85,15.69-1.65v-3.51Z"/>
    <path class="cls-1" d="m235.13,215.78v3.51c-1.91.2-3.95.37-6.21.51-.06.02-.09.02-.13.02-.9,0-1.67-.72-1.73-1.64-.07-.96.66-1.78,1.62-1.84,2.37-.17,4.48-.35,6.45-.57Z"/>
  </g>
  <rect class="cls-2" x="267.4" y="0" width="235.13" height="235.13" rx="5.88" ry="5.88"/>
  <g>
    <path class="cls-1" d="m406.33,0c-.4,1.47-.83,2.92-1.25,4.37,31.14,8.62,63.75,7.9,94.44-2.15l.53-.09c.39,0,.75.13,1.05.35.42.33.7.83.7,1.4,0,.81-.55,1.49-1.3,1.69-.66.22-1.34.42-2,.62-16.22,5.09-32.98,7.64-49.75,7.64-14.97,0-29.95-2.06-44.63-6.12-1.71,5.44-3.69,10.77-5.92,15.97,27.49,8.25,56.7,9.13,84.59,2.52.53-.13,1.07,0,1.45.29.31.24.55.59.64.99.22.94-.35,1.87-1.29,2.09-.61.15-1.19.28-1.8.4-12.05,2.72-24.34,4.08-36.64,4.08-16.31,0-32.61-2.41-48.38-7.17-2.37,5.22-4.96,10.33-7.85,15.25,25.02,8.51,51.96,10.84,78.03,6.72l.26-.02c.39,0,.75.13,1.05.37.42.29.7.81.7,1.38,0,.9-.66,1.64-1.54,1.73-.5.07-1.01.15-1.51.22-8.03,1.19-16.17,1.78-24.27,1.78-18.52,0-37-3.09-54.57-9.15-3.03,4.92-6.28,9.68-9.81,14.28,23.57,9.39,49.31,13.25,74.57,11.1.46-.04.88.09,1.19.35.39.28.64.72.7,1.23.07.96-.64,1.8-1.6,1.87-.46.04-.9.07-1.36.09-4.21.35-8.45.51-12.68.51-21.53,0-43.07-4.21-63.04-12.31-3.62,4.5-7.48,8.82-11.56,12.93,22.91,11.01,48.36,16.63,73.8,16.17h.04c.39,0,.73.13,1.03.35.42.29.7.77.72,1.34.02.97-.75,1.76-1.71,1.78-.4,0-.81.02-1.19,0-.57.02-1.14.02-1.69.02-25.43,0-50.78-5.88-73.6-17.05-4.1,3.97-8.41,7.75-12.93,11.3,22.84,13.41,48.82,21.15,75.33,22.38.37.02.68.13.96.33.46.33.73.88.72,1.49-.06.92-.83,1.65-1.75,1.65h-.07l-1.05-.06c-27.19-1.43-53.81-9.57-77.15-23.54-2.96,2.24-5.99,4.41-9.11,6.45-.04.02-.06.04-.09.06-.29.18-.62.28-.96.28-.57,0-1.12-.28-1.45-.79-.53-.81-.29-1.87.5-2.41,15.08-9.81,28.28-21.88,39.21-35.7.07-.13.17-.26.28-.37,13.58-17.27,23.65-37.26,29.4-58.92h3.62Z"/>
    <path class="cls-1" d="m409.71,131.01c-22.25-2.39-43.41-9.18-62.89-20.17-.83-.47-1.9-.18-2.37.66-.47.84-.18,1.9.66,2.37,19.89,11.23,41.5,18.16,64.22,20.6.06,0,.13,0,.19,0,.88,0,1.63-.66,1.73-1.55.1-.95-.59-1.81-1.54-1.91Z"/>
    <path class="cls-1" d="m396.51,149.95c-9.31-1.56-18.51-3.94-27.37-7.08-.91-.32-1.9.15-2.22,1.06-.32.91.15,1.9,1.06,2.22,9.04,3.2,18.44,5.63,27.95,7.23.1.02.2.02.29.02.83,0,1.57-.6,1.71-1.45.16-.95-.48-1.84-1.43-2Z"/>
    <path class="cls-1" d="m293.04,0s-.02.04-.04.06c-4.52,5.53-9.43,10.82-14.61,15.69-.06.06-.11.11-.17.13-.29.24-.66.35-1.01.35-.48,0-.94-.18-1.27-.53-.66-.7-.62-1.8.07-2.46.07-.06.13-.13.2-.2C280.53,8.95,284.67,4.57,288.54,0h4.5Z"/>
    <path class="cls-1" d="m318.65,0c-8.07,12.05-17.66,22.98-28.53,32.54-.04.04-.07.06-.11.09-.31.22-.66.33-1.03.33-.48,0-.97-.2-1.3-.59-.64-.72-.57-1.82.15-2.44.05-.06.11-.09.17-.17C297.99,20.98,306.88,10.97,314.41,0h4.24Z"/>
    <path class="cls-1" d="m342.54,0c-10.34,18.92-24.09,35.46-40.82,49.13-.02.02-.04.04-.07.06-.29.24-.68.35-1.03.35-.5,0-.99-.22-1.34-.64-.61-.73-.5-1.84.24-2.44.04-.04.09-.07.13-.11C315.48,33.36,328.58,17.78,338.55,0h3.99Z"/>
    <path class="cls-1" d="m365.06,0c-11.45,25.83-29.38,48.5-51.88,65.57,0,0-.02,0-.02.02-.31.22-.66.33-1.03.33-.53,0-1.05-.22-1.4-.68-.57-.77-.42-1.86.35-2.44.02-.02.06-.04.07-.06C332.75,46.34,350.04,24.67,361.22,0h3.84Z"/>
    <path class="cls-1" d="m386.25,0c-11.39,32.78-33.27,61.81-61.7,81.8-.02,0-.02.02-.04.02-.29.22-.64.31-.99.31-.55,0-1.08-.26-1.43-.73-.55-.77-.35-1.87.42-2.43.02,0,.02-.02.04-.02,27.49-19.33,48.72-47.31,59.99-78.95h3.71Z"/>
  </g>
  <rect class="cls-2" x="534.79" width="235.13" height="235.13" rx="5.88" ry="5.88"/>
  <g>
    <path class="cls-1" d="m656.47,235.13h-4.17c-.72-1.07-1.41-2.11-2.11-3.1-.55-.77-.37-1.86.42-2.43.79-.55,1.87-.35,2.43.42,1.14,1.62,2.28,3.34,3.44,5.11Z"/>
    <path class="cls-1" d="m680.38,235.13h-3.97c-2.11-3.78-4.35-7.46-6.69-10.97-.53-.81-.31-1.87.48-2.41.81-.53,1.89-.31,2.43.48,2.72,4.12,5.35,8.45,7.75,12.9Z"/>
    <path class="cls-1" d="m703.18,235.13h-3.82c-3.6-7.83-7.83-15.4-12.59-22.51-.55-.81-.33-1.87.48-2.43.79-.53,1.87-.31,2.41.48,5.14,7.72,9.72,15.93,13.52,24.45Z"/>
    <path class="cls-1" d="m725.02,235.13h-3.71c-2.09-5.68-4.57-11.3-7.33-16.74-3.14-6.21-6.76-12.33-10.77-18.21-.7-1.01-1.38-2.02-2.11-3.01-.57-.77-.4-1.86.37-2.43.77-.57,1.86-.4,2.43.37.75,1.03,1.47,2.08,2.19,3.12,4.1,5.99,7.79,12.25,11.01,18.57,3.01,5.93,5.68,12.11,7.94,18.32Z"/>
    <path class="cls-1" d="m717.93,179.57c3.42,4.43,6.6,9.08,9.55,13.83,11.46-16.68,25.7-31.03,42.44-42.61v4.23c-15.95,11.41-29.56,25.41-40.49,41.63,3.01,5.11,5.75,10.42,8.18,15.8,8.97-13.43,19.81-25.5,32.32-35.86v4.56c-11.89,10.18-22.18,21.97-30.65,35.09,2.55,6.04,4.76,12.24,6.54,18.41,6.8-11.06,14.88-21.33,24.1-30.5v4.94c-7.64,7.96-14.46,16.7-20.3,26.03h-7.28c-1.8-6.17-4.04-12.35-6.63-18.39-2.83-6.61-6.14-13.1-9.83-19.27-3.45-5.79-7.31-11.43-11.46-16.76-.46-.59-.5-1.41-.07-2.04,14.13-21.33,33.35-39.37,55.58-52.22v4.02c-20.67,12.29-38.6,29.19-51.99,49.09Z"/>
    <path class="cls-1" d="m769.92,103.29v3.86c-16.9,8.3-32.1,19.33-45.22,32.83-.33.35-.79.53-1.25.53-.42,0-.86-.17-1.21-.5-.68-.66-.7-1.76-.04-2.46,13.8-14.18,29.84-25.72,47.71-34.27Z"/>
    <path class="cls-1" d="m769.92,81.23v3.75c-2.88,1.14-5.77,2.39-8.62,3.73-5.55,2.59-10.99,5.51-16.13,8.67-5.59,3.4-11.01,7.18-16.11,11.23-.31.26-.7.39-1.08.39-.24,0-.5-.06-.72-.17-.61-.28-.99-.86-1.01-1.51-1.27-33.66-12.6-92.27-74.48-106.67-.99-.22-2-.44-3.01-.64h13.52c53.76,17.88,65.46,70.68,67.28,103.82,4.15-3.16,8.49-6.12,12.92-8.86-1.98-55.72-25.21-82.18-44.41-94.56-.17-.11-.33-.26-.42-.4h5.97c18.85,13.6,39.89,40.46,42.26,92.91,4.17-2.46,8.51-4.76,12.93-6.87-.44-25.83-5.99-61.31-29.49-85.89-.06-.06-.09-.09-.13-.15h4.7c22.1,24.75,27.72,58.9,28.37,84.46,2.54-1.12,5.09-2.22,7.66-3.23Z"/>
    <path class="cls-1" d="m769.92,21.75v11.92c-3.27-12.71-8.14-24.05-14.46-33.68h4.13c4.08,6.56,7.55,13.85,10.33,21.75Z"/>
  </g>
</svg>