<?xml version="1.0" encoding="UTF-8"?>
<svg id="Layer_1" data-name="Layer 1" xmlns="http://www.w3.org/2000/svg" viewBox="0 0 770.03 326.2">
  <defs>
    <style>
      .cls-1 {
        fill: #44464d;
      }

      .cls-1, .cls-2 {
        stroke-width: 0px;
      }

      .cls-2 {
        fill: #d3d7e0;
      }
    </style>
  </defs>
  <g>
    <path class="cls-1" d="m39.57,306.52c0,.22,0,.44-.01.66-.11,3.6-1.13,6.51-3.04,8.76-2.02,2.37-4.69,3.57-8.07,3.57h-8.45c-3.39,0-6.05-1.26-8.11-3.79-2.05-2.5-3.09-5.81-3.09-9.97v-15.43c0-1.25.1-2.43.3-3.54.24-1.37.64-2.63,1.18-3.78.46-.98,1.03-1.87,1.71-2.69.22-.26.45-.51.69-.74,1.35-1.34,2.94-2.22,4.76-2.66.89-.21,1.84-.32,2.84-.32h8.34c3.27,0,5.86,1.05,7.82,3.19.46.5.87,1.05,1.22,1.63.97,1.6,1.52,3.47,1.67,5.61.04.42.05.84.05,1.28h7.32c0-.36-.01-.72-.02-1.07-.08-1.97-.4-3.82-.95-5.52-.33-1.05-.75-2.05-1.26-2.99-1.49-2.78-3.59-4.96-6.37-6.5-2.76-1.55-5.91-2.31-9.48-2.31h-8.34c-2.87,0-5.47.46-7.8,1.43-.74.3-1.46.66-2.15,1.07-.91.53-1.75,1.13-2.52,1.81-1.14.97-2.13,2.1-2.98,3.38-.42.61-.8,1.25-1.15,1.92-.28.56-.54,1.13-.76,1.72-.49,1.2-.85,2.48-1.1,3.82-.25,1.26-.4,2.58-.44,3.96-.02.38-.03.77-.03,1.16v15.71c0,4.04.73,7.62,2.3,10.66,1.54,3.09,3.74,5.42,6.58,7.13,2.82,1.68,6.07,2.52,9.77,2.52h8.45c3.68,0,6.91-.84,9.69-2.44,2.78-1.65,4.92-3.96,6.47-6.92.45-.9.83-1.85,1.13-2.83.53-1.6.86-3.31,1-5.13.07-.76.1-1.55.1-2.36h-7.27Z"/>
    <path class="cls-1" d="m149.25,277.02v-6.51h-38.63v49.15c0,.44.03.85.09,1.24.17,1.15.6,2.1,1.31,2.87h.01c.07.09.14.16.22.24,1.06,1.04,2.56,1.53,4.35,1.53h32.65v-6.52h-31.16v-18.4h28.79v-6.44h-28.79v-17.16h31.16Z"/>
    <path class="cls-1" d="m252.8,311.08c-.32-1.02-.67-1.98-1.06-2.87-.54-1.23-1.15-2.33-1.82-3.31-.8-1.15-1.7-2.12-2.68-2.91-.44-.36-.9-.68-1.37-.96v-.08c2.97-.9,5.25-2.46,6.97-4.52.47-.58.88-1.18,1.22-1.81h0c.8-1.5,1.24-3.11,1.31-4.89h0c.02-.2.02-.39.02-.59v-5.64c0-.82-.06-1.61-.18-2.36-.21-1.4-.62-2.67-1.23-3.84-.62-1.19-1.45-2.26-2.49-3.22-2.57-2.37-6-3.57-10.23-3.57h-27.64v55.03h7.5v-22.06h15.09c1.64,0,3.12.46,4.48,1.37.34.22.66.47.98.75.69.61,1.3,1.32,1.81,2.13.66.99,1.18,2.12,1.57,3.39.03.09.06.19.09.28l4.25,14.14h7.72l-4.31-14.46Zm-12.4-14.28h-.01c-.38.04-.79.06-1.2.06h-18.07v-19.73h19.97c2.03,0,3.68.57,4.95,1.71.59.57,1.04,1.2,1.36,1.92.34.78.52,1.66.52,2.64v5.75c0,2.03-.58,3.73-1.82,5.04t0,.01c-.17.19-.36.37-.56.54-1.35,1.18-3.05,1.88-5.13,2.06Z"/>
    <path class="cls-1" d="m353.1,293.99l-1.9-4.94-1.85-4.79-1.8-4.67-1.76-4.57-.31-.82c-.9-2.47-2.51-3.69-4.78-3.69h-3.39l-.93,2.4-1.45,3.76-1.46,3.77-1.46,3.77-1.47,3.8-14.53,37.53h7.78l5.33-14.46h23.02l5.36,14.46h7.74l-12.14-31.55Zm-21.75,10.84l5.84-15.61,1.41-3.75,1.4-3.74.66-1.76h.04l.78,2.1,1.66,4.49,1.7,4.59,5.06,13.68h-18.55Z"/>
    <path class="cls-1" d="m472.1,270.51l-1.44,2.72-1.96,3.72-1.81,3.44-1.96,3.71-2.25,4.28h-.01s-4.36,8.26-4.36,8.26h0s-4.08,7.73-4.08,7.73l-.78,1.48-.38-.7-1.9-3.53-1.9-3.52-1.91-3.52-1.91-3.55-11.08-20.52h-6.93v55.03h7.38v-41.02l16.59,30.17h2.14c.71,0,1.35-.2,1.94-.69.44-.39.94-1.01,1.46-1.88.11-.17.21-.36.32-.55l3.77-7.06h0s4.36-8.17,4.36-8.17l3.95-7.41,1.91-3.57.45-.84v41.02h7.31v-55.03h-6.92Z"/>
    <path class="cls-1" d="m546.56,270.51v55.03h7.48v-55.03h-7.48Z"/>
    <path class="cls-1" d="m658.2,306.52c0,3.9-.98,7.03-3.02,9.42-2,2.37-4.68,3.57-8.07,3.57h-8.5c-2.35,0-4.39-.63-6.1-1.89-.72-.52-1.38-1.16-1.99-1.9-.83-1.04-1.51-2.22-2-3.55h0c-.71-1.87-1.08-3.99-1.08-6.42v-15.43c0-3.32.71-6.13,2.09-8.43.34-.56.72-1.08,1.13-1.58.52-.61,1.08-1.14,1.68-1.6,1.84-1.42,4.05-2.12,6.6-2.12h8.33c2.68,0,4.93.71,6.74,2.16.38.31.75.66,1.09,1.03.85.94,1.53,2.02,2,3.22.51,1.23.81,2.59.92,4.09.03.39.04.8.04,1.21h7.33c0-.1,0-.2,0-.29-.01-1.43-.15-2.8-.41-4.09-.29-1.49-.73-2.89-1.34-4.19-.15-.34-.32-.68-.5-1.01-.66-1.24-1.45-2.35-2.38-3.35-1.13-1.24-2.47-2.29-4-3.15-1.14-.64-2.34-1.14-3.62-1.51-1.81-.54-3.76-.8-5.86-.8h-8.33c-1.96,0-3.81.22-5.53.67-1.57.42-3.03,1.02-4.38,1.83-.37.21-.73.44-1.08.68-1.16.77-2.18,1.68-3.09,2.71-.97,1.1-1.8,2.34-2.51,3.72-.14.27-.27.55-.39.83-1.31,2.86-1.94,6.14-1.94,9.83v15.71c0,2.46.28,4.74.85,6.84h0c.37,1.36.85,2.63,1.46,3.82.7,1.41,1.53,2.66,2.51,3.76,1.11,1.28,2.4,2.36,3.88,3.27.05.04.1.07.15.1,1.18.69,2.41,1.24,3.72,1.64,1.86.59,3.87.88,6.02.88h8.5c3.7,0,6.9-.84,9.68-2.44,2.8-1.65,4.93-3.96,6.44-6.92,1.55-3,2.29-6.42,2.29-10.32h-7.32Z"/>
    <path class="cls-1" d="m766.51,299.88c-2.31-2.1-5.63-3.53-10.01-4.27l-14.15-2.45c-2.21-.43-3.91-1.16-5.07-2.27-1.16-1.12-1.78-2.49-1.78-4.18v-3.52c0-2.06.84-3.67,2.47-4.86,1.66-1.16,3.8-1.74,6.52-1.74h8.87c2.53,0,4.53.78,6.06,2.37,1.5,1.6,2.29,3.72,2.29,6.34h7.38c0-3.05-.66-5.72-1.96-8.03-1.31-2.37-3.15-4.19-5.58-5.44-2.39-1.28-5.11-1.92-8.19-1.92h-8.87c-4.94,0-8.95,1.17-11.95,3.56-3,2.37-4.49,5.51-4.49,9.46v4.33c0,3.31,1.14,6.09,3.41,8.27,2.27,2.21,5.51,3.64,9.72,4.31l14.3,2.39c2.27.35,3.99,1.09,5.23,2.17,1.21,1.1,1.84,2.49,1.84,4.08v4.25c0,2.07-.84,3.72-2.59,4.93-1.74,1.24-4.03,1.85-6.93,1.85h-8.72c-1.17,0-2.24-.15-3.22-.44-1.45-.44-2.7-1.2-3.77-2.29-1.71-1.86-2.61-4.33-2.61-7.4h-7.28c0,.28,0,.56.02.84.15,4.72,1.65,8.55,4.54,11.4.68.68,1.41,1.29,2.19,1.81,1.47,1.01,3.14,1.74,4.99,2.19,1.35.34,2.8.53,4.35.57.22.01.44.01.67.01h9c5.09,0,9.18-1.19,12.22-3.62,1.8-1.43,3.09-3.13,3.83-5.1.53-1.36.79-2.86.79-4.48v-5.15c0-3.19-1.19-5.82-3.52-7.97Z"/>
  </g>
  <g>
    <path class="cls-1" d="m235.16,5.89v223.38c0,3.25-2.63,5.88-5.88,5.88H5.88c-1.65,0-3.14-.68-4.21-1.78-1.03-1.07-1.67-2.5-1.67-4.1V5.89C0,2.64,2.63,0,5.88,0h223.4c1.25,0,2.43.4,3.38,1.08,1.51,1.05,2.5,2.81,2.5,4.8Z"/>
    <g>
      <polygon class="cls-2" points="93.91 0 0 187.82 0 195.57 97.79 0 93.91 0"/>
      <polygon class="cls-2" points="77.19 0 0 154.39 0 146.62 73.32 0 77.19 0"/>
      <polygon class="cls-2" points="56.61 0 0 113.22 0 105.44 52.72 0 56.61 0"/>
      <polygon class="cls-2" points="36.01 0 0 72.02 0 64.27 32.14 0 36.01 0"/>
      <polygon class="cls-2" points="15.42 0 0 30.84 0 23.09 11.54 0 15.42 0"/>
      <path class="cls-2" d="m190.23,0c-.2.26-.46.46-.77.57-4.58,1.76-9.33,3.34-14.13,4.69-14.77,4.19-29.97,6.3-45.24,6.3-1.84,0-3.67-.04-5.49-.09-.97-.04-1.73-.85-1.69-1.8s.79-1.75,1.8-1.67c16.76.53,33.48-1.49,49.69-6.08,2.11-.59,4.19-1.23,6.27-1.91h9.57Z"/>
      <path class="cls-2" d="m232.66,1.09c-1.95,1.38-3.99,2.7-6.03,3.99-26.68,16.67-57.22,25.43-88.53,25.43-1.32,0-2.66-.02-4.01-.04-.96-.04-1.71-.83-1.69-1.78.02-.96.74-1.75,1.78-1.69,32.06.72,63.36-7.85,90.59-24.88,1.1-.68,2.2-1.4,3.29-2.11h1.21c1.25,0,2.43.4,3.38,1.08Z"/>
      <path class="cls-2" d="m235.16,23.71c-26.81,16.89-57.53,25.78-89.1,25.78-.81,0-1.62,0-2.44-.02-.96,0-1.73-.79-1.71-1.76.02-.94.79-1.71,1.75-1.71h.02c32.32.46,63.72-8.54,90.95-26.06.17-.11.35-.2.53-.24v4.01Z"/>
      <path class="cls-2" d="m235.16,47.42c-24.81,13.78-52.75,21.04-81.05,21.04h-.97c-.97,0-1.75-.79-1.73-1.75,0-.96.77-1.73,1.73-1.73.29-.02.66,0,.97,0,28.17,0,56.01-7.35,80.59-21.3.15-.07.31-.13.46-.17v3.9Z"/>
      <path class="cls-2" d="m235.16,70.55c-22.49,10.95-47.55,16.78-72.53,16.89h-.02c-.96,0-1.73-.77-1.73-1.73s.77-1.75,1.73-1.75c24.88-.11,49.83-6.03,72.18-17.11.13-.06.24-.11.37-.15v3.84Z"/>
      <path class="cls-2" d="m235.16,93.15c-20.07,8.51-41.27,12.95-63.03,13.23h-.04c-.94,0-1.71-.75-1.73-1.71s.75-1.75,1.71-1.76c21.7-.28,42.81-4.78,62.79-13.41.09-.04.2-.07.29-.07v3.73Z"/>
      <path class="cls-2" d="m235.16,111.58v3.67c-17.22,6.28-35.24,9.67-53.56,10.05h-.04c-.94,0-1.71-.75-1.73-1.71-.04-.96.73-1.75,1.69-1.76,18.28-.39,36.27-3.8,53.43-10.2.07-.02.13-.04.2-.06Z"/>
      <path class="cls-2" d="m235.16,133.3v3.58c-30.02,7.79-72.71,11.89-111.55,11.89-30.21,0-58.05-2.48-75.83-7.59L.79,235.15h-.79v-6.19L114.47,0h3.9L49.35,138.02c40.72,11.41,133.25,9.17,185.77-4.72h.04Z"/>
      <path class="cls-2" d="m235.16,154.56v3.56c-11.28,2.9-22.93,4.59-34.62,5.03h-.06c-.94,0-1.71-.74-1.75-1.67-.04-.96.72-1.76,1.67-1.8,11.72-.46,23.39-2.19,34.71-5.13h.04Z"/>
      <path class="cls-2" d="m235.16,175.36v3.55c-8.23,1.71-16.68,2.76-25.14,3.16h-.07c-.94,0-1.71-.73-1.75-1.67-.04-.96.7-1.76,1.65-1.8,8.51-.4,17.03-1.49,25.3-3.23Z"/>
      <path class="cls-2" d="m235.16,195.79c-5.26.83-10.58,1.4-15.88,1.69-.96.06-1.69.86-1.64,1.84.04.92.81,1.64,1.73,1.64h.09c5.24-.29,10.49-.85,15.69-1.65v-3.51Z"/>
      <path class="cls-2" d="m235.16,215.8v3.51c-1.91.2-3.95.37-6.21.51-.06.02-.09.02-.13.02-.9,0-1.67-.72-1.73-1.64-.07-.96.66-1.78,1.62-1.84,2.37-.17,4.48-.35,6.45-.57Z"/>
    </g>
  </g>
  <g>
    <rect class="cls-1" x="267.43" y="0" width="235.16" height="235.16" rx="5.88" ry="5.88"/>
    <g>
      <path class="cls-2" d="m406.38,0c-.4,1.47-.83,2.92-1.25,4.37,31.15,8.62,63.76,7.9,94.45-2.15l.53-.09c.39,0,.75.13,1.05.35.42.33.7.83.7,1.4,0,.81-.55,1.49-1.3,1.69-.66.22-1.34.42-2,.62-16.22,5.09-32.98,7.64-49.76,7.64-14.98,0-29.95-2.06-44.63-6.12-1.71,5.44-3.69,10.77-5.92,15.97,27.49,8.25,56.7,9.13,84.6,2.52.53-.13,1.07,0,1.45.29.31.24.55.59.64.99.22.94-.35,1.87-1.29,2.09-.61.15-1.19.28-1.8.4-12.05,2.72-24.35,4.08-36.64,4.08-16.32,0-32.62-2.41-48.38-7.17-2.37,5.22-4.96,10.33-7.85,15.25,25.03,8.51,51.96,10.84,78.04,6.73l.26-.02c.39,0,.75.13,1.05.37.42.29.7.81.7,1.38,0,.9-.66,1.64-1.54,1.73-.5.07-1.01.15-1.51.22-8.03,1.19-16.17,1.78-24.27,1.78-18.52,0-37.01-3.09-54.57-9.15-3.03,4.92-6.28,9.68-9.81,14.28,23.57,9.39,49.32,13.25,74.58,11.1.46-.04.88.09,1.19.35.39.28.64.72.7,1.23.07.96-.64,1.8-1.6,1.87-.46.04-.9.07-1.36.09-4.21.35-8.45.51-12.68.51-21.54,0-43.07-4.21-63.04-12.31-3.62,4.5-7.48,8.82-11.56,12.94,22.91,11.01,48.36,16.63,73.81,16.17h.04c.39,0,.73.13,1.03.35.42.29.7.77.72,1.34.02.97-.75,1.76-1.71,1.78-.4,0-.81.02-1.19,0-.57.02-1.14.02-1.69.02-25.43,0-50.79-5.88-73.61-17.05-4.1,3.97-8.42,7.75-12.94,11.3,22.84,13.41,48.82,21.15,75.34,22.38.37.02.68.13.96.33.46.33.73.88.72,1.49-.06.92-.83,1.65-1.75,1.65h-.07l-1.05-.06c-27.19-1.43-53.82-9.57-77.16-23.54-2.96,2.24-5.99,4.41-9.11,6.45-.04.02-.06.04-.09.06-.29.18-.62.28-.96.28-.57,0-1.12-.28-1.45-.79-.53-.81-.29-1.87.5-2.41,15.09-9.81,28.28-21.88,39.21-35.7.07-.13.17-.26.28-.37,13.58-17.27,23.65-37.26,29.4-58.93h3.62Z"/>
      <path class="cls-2" d="m409.76,131.03c-22.25-2.39-43.41-9.18-62.89-20.18-.83-.47-1.9-.18-2.37.66-.47.84-.18,1.9.66,2.37,19.89,11.23,41.5,18.16,64.23,20.61.06,0,.13,0,.19,0,.88,0,1.63-.66,1.73-1.55.1-.95-.59-1.81-1.54-1.91Z"/>
      <path class="cls-2" d="m396.55,149.97c-9.31-1.56-18.52-3.95-27.37-7.08-.91-.32-1.9.15-2.22,1.06-.32.91.15,1.9,1.06,2.22,9.04,3.2,18.44,5.63,27.95,7.23.1.02.2.02.29.02.83,0,1.57-.6,1.71-1.45.16-.95-.48-1.84-1.43-2Z"/>
      <path class="cls-2" d="m293.08,0s-.02.04-.04.06c-4.52,5.53-9.43,10.82-14.61,15.69-.06.06-.11.11-.17.13-.29.24-.66.35-1.01.35-.48,0-.94-.18-1.27-.53-.66-.7-.62-1.8.07-2.46.07-.06.13-.13.2-.2C280.56,8.95,284.7,4.58,288.57,0h4.5Z"/>
      <path class="cls-2" d="m318.69,0c-8.07,12.05-17.66,22.99-28.54,32.54-.04.04-.07.06-.11.09-.31.22-.66.33-1.03.33-.48,0-.97-.2-1.3-.59-.64-.72-.57-1.82.15-2.44.05-.06.11-.09.17-.17C298.02,20.98,306.91,10.97,314.45,0h4.24Z"/>
      <path class="cls-2" d="m342.58,0c-10.34,18.93-24.09,35.46-40.83,49.13-.02.02-.04.04-.07.06-.29.24-.68.35-1.03.35-.5,0-.99-.22-1.34-.64-.61-.74-.5-1.84.24-2.44.04-.04.09-.07.13-.11C315.51,33.37,328.61,17.79,338.59,0h3.99Z"/>
      <path class="cls-2" d="m365.11,0c-11.45,25.83-29.38,48.51-51.89,65.58,0,0-.02,0-.02.02-.31.22-.66.33-1.03.33-.53,0-1.05-.22-1.4-.68-.57-.77-.42-1.86.35-2.44.02-.02.06-.04.07-.06C332.78,46.34,350.07,24.68,361.27,0h3.84Z"/>
      <path class="cls-2" d="m386.29,0c-11.39,32.78-33.28,61.81-61.7,81.8-.02,0-.02.02-.04.02-.29.22-.64.31-.99.31-.55,0-1.08-.26-1.43-.73-.55-.77-.35-1.87.42-2.43.02,0,.02-.02.04-.02,27.49-19.33,48.73-47.31,59.99-78.96h3.71Z"/>
    </g>
  </g>
  <g>
    <rect class="cls-1" x="534.85" width="235.16" height="235.16" rx="5.88" ry="5.88"/>
    <g>
      <path class="cls-2" d="m656.55,235.16h-4.17c-.72-1.07-1.41-2.11-2.11-3.11-.55-.77-.37-1.86.42-2.43.79-.55,1.87-.35,2.43.42,1.14,1.62,2.28,3.34,3.44,5.11Z"/>
      <path class="cls-2" d="m680.45,235.16h-3.97c-2.11-3.79-4.35-7.46-6.69-10.97-.53-.81-.31-1.87.48-2.41.81-.53,1.89-.31,2.43.48,2.72,4.12,5.35,8.45,7.75,12.9Z"/>
      <path class="cls-2" d="m703.25,235.16h-3.82c-3.6-7.83-7.83-15.4-12.59-22.51-.55-.81-.33-1.87.48-2.43.79-.53,1.87-.31,2.41.48,5.14,7.72,9.72,15.93,13.52,24.46Z"/>
      <path class="cls-2" d="m725.1,235.16h-3.71c-2.09-5.68-4.58-11.3-7.33-16.74-3.14-6.21-6.76-12.33-10.77-18.21-.7-1.01-1.38-2.02-2.11-3.01-.57-.77-.4-1.86.37-2.43.77-.57,1.86-.4,2.43.37.75,1.03,1.47,2.08,2.19,3.12,4.1,5.99,7.79,12.26,11.01,18.58,3.01,5.94,5.68,12.11,7.94,18.32Z"/>
      <path class="cls-2" d="m718.01,179.59c3.42,4.43,6.6,9.08,9.56,13.84,11.47-16.68,25.71-31.03,42.45-42.61v4.23c-15.95,11.41-29.57,25.41-40.5,41.64,3.01,5.11,5.75,10.42,8.18,15.8,8.97-13.43,19.81-25.5,32.32-35.87v4.56c-11.89,10.18-22.18,21.98-30.65,35.1,2.55,6.05,4.76,12.24,6.54,18.41,6.8-11.06,14.88-21.33,24.11-30.5v4.94c-7.64,7.96-14.46,16.7-20.3,26.04h-7.28c-1.8-6.17-4.04-12.35-6.63-18.39-2.83-6.61-6.14-13.1-9.83-19.28-3.45-5.79-7.31-11.43-11.47-16.76-.46-.59-.5-1.41-.07-2.04,14.13-21.33,33.35-39.38,55.58-52.22v4.02c-20.67,12.29-38.61,29.2-52,49.1Z"/>
      <path class="cls-2" d="m770.01,103.3v3.86c-16.9,8.31-32.1,19.33-45.22,32.84-.33.35-.79.53-1.25.53-.42,0-.86-.17-1.21-.5-.68-.66-.7-1.76-.04-2.46,13.8-14.19,29.84-25.72,47.72-34.27Z"/>
      <path class="cls-2" d="m770.01,81.23v3.75c-2.88,1.14-5.77,2.39-8.62,3.73-5.55,2.59-10.99,5.51-16.13,8.67-5.59,3.4-11.01,7.18-16.11,11.23-.31.26-.7.39-1.08.39-.24,0-.5-.06-.72-.17-.61-.28-.99-.86-1.01-1.51-1.27-33.66-12.61-92.28-74.49-106.68-.99-.22-2-.44-3.01-.64h13.52c53.76,17.88,65.47,70.69,67.29,103.84,4.15-3.16,8.49-6.12,12.92-8.86-1.98-55.73-25.21-82.19-44.41-94.57-.17-.11-.33-.26-.42-.4h5.97c18.85,13.6,39.89,40.46,42.26,92.92,4.17-2.46,8.51-4.76,12.94-6.87-.44-25.83-5.99-61.32-29.49-85.9-.06-.06-.09-.09-.13-.15h4.7c22.1,24.75,27.73,58.91,28.37,84.47,2.54-1.12,5.09-2.22,7.66-3.23Z"/>
      <path class="cls-2" d="m770.01,21.76v11.93c-3.27-12.72-8.14-24.05-14.46-33.68h4.13c4.08,6.56,7.55,13.85,10.33,21.76Z"/>
    </g>
  </g>
</svg>