<?xml version="1.0" encoding="UTF-8"?>
<svg id="Layer_1" data-name="Layer 1" xmlns="http://www.w3.org/2000/svg" viewBox="0 0 729.44 1112.32">
  <defs>
    <style>
      .cls-1 {
        fill: #48494c;
      }

      .cls-1, .cls-2 {
        stroke-width: 0px;
      }

      .cls-2 {
        fill: #fff;
      }
    </style>
  </defs>
  <path class="cls-1" d="m348.26,8.68v329.64c0,4.79-3.88,8.68-8.68,8.68H9.92c-2.44,0-4.64-1-6.21-2.63-1.52-1.57-2.47-3.69-2.47-6.05V8.68C1.25,3.88,5.13,0,9.92,0h329.66c1.84,0,3.58.6,4.99,1.6,2.22,1.55,3.69,4.15,3.69,7.08Z"/>
  <g>
    <polygon class="cls-2" points="139.83 0 1.25 277.14 1.25 288.58 145.55 0 139.83 0"/>
    <polygon class="cls-2" points="115.16 0 1.25 227.82 1.25 216.35 109.44 0 115.16 0"/>
    <polygon class="cls-2" points="84.79 0 1.25 167.06 1.25 155.59 79.04 0 84.79 0"/>
    <polygon class="cls-2" points="54.39 0 1.25 106.26 1.25 94.82 48.67 0 54.39 0"/>
    <polygon class="cls-2" points="24 0 1.25 45.5 1.25 34.06 18.27 0 24 0"/>
    <path class="cls-2" d="m281.97,0c-.3.38-.68.68-1.14.84-6.75,2.6-13.77,4.93-20.85,6.91-21.8,6.18-44.22,9.3-66.76,9.3-2.71,0-5.42-.05-8.11-.14-1.44-.05-2.55-1.25-2.49-2.66s1.17-2.58,2.66-2.47c24.73.79,49.4-2.2,73.32-8.98,3.12-.87,6.18-1.82,9.25-2.82h14.13Z"/>
    <path class="cls-2" d="m344.58,1.6c-2.87,2.03-5.88,3.99-8.89,5.88-39.37,24.59-84.44,37.53-130.64,37.53-1.95,0-3.93-.03-5.91-.05-1.41-.05-2.52-1.22-2.49-2.63.03-1.41,1.08-2.58,2.63-2.49,47.32,1.06,93.49-11.58,133.68-36.71,1.63-1,3.25-2.06,4.85-3.12h1.79c1.84,0,3.58.6,4.99,1.6Z"/>
    <path class="cls-2" d="m348.26,34.98c-39.56,24.92-84.9,38.04-131.48,38.04-1.19,0-2.39,0-3.61-.03-1.41,0-2.55-1.17-2.52-2.6.03-1.38,1.17-2.52,2.58-2.52h.03c47.7.68,94.03-12.61,134.22-38.45.24-.16.52-.3.79-.35v5.91Z"/>
    <path class="cls-2" d="m348.26,69.96c-36.61,20.34-77.85,31.05-119.6,31.05h-1.44c-1.44,0-2.58-1.17-2.55-2.58,0-1.41,1.14-2.55,2.55-2.55.43-.03.98,0,1.44,0,41.57,0,82.65-10.85,118.93-31.43.22-.11.46-.19.68-.24v5.75Z"/>
    <path class="cls-2" d="m348.26,104.09c-33.19,16.16-70.17,24.76-107.02,24.92h-.03c-1.41,0-2.55-1.14-2.55-2.55s1.14-2.58,2.55-2.58c36.71-.16,73.54-8.89,106.51-25.24.19-.08.35-.16.54-.22v5.67Z"/>
    <path class="cls-2" d="m348.26,137.45c-29.61,12.55-60.9,19.12-93,19.52h-.05c-1.38,0-2.52-1.11-2.55-2.52-.03-1.41,1.11-2.58,2.52-2.6,32.02-.41,63.18-7.05,92.65-19.79.14-.05.3-.11.43-.11v5.5Z"/>
    <path class="cls-2" d="m348.26,164.64v5.42c-25.41,9.27-52.01,14.26-79.04,14.83h-.05c-1.38,0-2.52-1.11-2.55-2.52-.05-1.41,1.08-2.58,2.49-2.6,26.98-.57,53.52-5.61,78.85-15.05.11-.03.19-.05.3-.08Z"/>
    <path class="cls-2" d="m348.26,196.69v5.29c-44.31,11.5-107.29,17.54-164.61,17.54-44.58,0-85.66-3.66-111.9-11.2L2.41,346.99h-1.17v-9.14L170.17,0h5.75l-101.84,203.66c60.09,16.84,196.64,13.53,274.13-6.97h.05Z"/>
    <path class="cls-2" d="m348.26,228.06v5.26c-16.65,4.28-33.84,6.78-51.08,7.43h-.08c-1.38,0-2.52-1.08-2.58-2.47-.05-1.41,1.06-2.6,2.47-2.66,17.3-.68,34.52-3.23,51.22-7.57h.05Z"/>
    <path class="cls-2" d="m348.26,258.76v5.23c-12.15,2.52-24.62,4.07-37.09,4.66h-.11c-1.38,0-2.52-1.08-2.58-2.47-.05-1.41,1.03-2.6,2.44-2.66,12.55-.6,25.14-2.2,37.34-4.77Z"/>
    <path class="cls-2" d="m348.26,288.91c-7.75,1.22-15.62,2.06-23.43,2.49-1.41.08-2.49,1.27-2.41,2.71.05,1.36,1.19,2.41,2.55,2.41h.14c7.73-.43,15.48-1.25,23.16-2.44v-5.18Z"/>
    <path class="cls-2" d="m348.26,318.44v5.18c-2.82.3-5.83.54-9.16.76-.08.03-.14.03-.19.03-1.33,0-2.47-1.06-2.55-2.41-.11-1.41.98-2.63,2.39-2.71,3.5-.24,6.62-.52,9.52-.84Z"/>
  </g>
  <rect class="cls-1" x="382.43" y="382.65" width="347.02" height="347.02" rx="8.68" ry="8.68"/>
  <g>
    <path class="cls-2" d="m587.47,382.65c-.6,2.17-1.22,4.31-1.84,6.45,45.96,12.72,94.09,11.66,139.37-3.17l.79-.14c.57,0,1.11.19,1.55.52.62.49,1.03,1.22,1.03,2.06,0,1.19-.81,2.2-1.93,2.49-.98.33-1.98.62-2.96.92-23.94,7.51-48.67,11.28-73.43,11.28-22.1,0-44.2-3.04-65.86-9.03-2.52,8.03-5.45,15.89-8.73,23.56,40.56,12.17,83.68,13.48,124.84,3.71.79-.19,1.57,0,2.14.43.46.35.81.87.95,1.46.33,1.38-.52,2.77-1.9,3.09-.89.22-1.76.41-2.66.6-17.79,4.01-35.93,6.02-54.07,6.02-24.08,0-48.13-3.55-71.39-10.57-3.5,7.7-7.32,15.24-11.58,22.51,36.93,12.55,76.68,16,115.16,9.92l.38-.03c.57,0,1.11.19,1.55.54.62.43,1.03,1.19,1.03,2.03,0,1.33-.98,2.41-2.28,2.55-.73.11-1.49.22-2.22.33-11.85,1.76-23.86,2.63-35.82,2.63-27.33,0-54.61-4.56-80.53-13.5-4.47,7.27-9.27,14.29-14.48,21.07,34.79,13.86,72.78,19.55,110.06,16.38.68-.05,1.3.14,1.76.52.57.41.95,1.06,1.03,1.82.11,1.41-.95,2.66-2.36,2.77-.68.05-1.33.11-2.01.14-6.21.52-12.47.76-18.71.76-31.78,0-63.56-6.21-93.03-18.17-5.34,6.64-11.04,13.02-17.06,19.09,33.81,16.24,71.37,24.54,108.92,23.86h.05c.57,0,1.08.19,1.52.52.62.43,1.03,1.14,1.06,1.98.03,1.44-1.11,2.6-2.52,2.63-.6,0-1.19.03-1.76,0-.84.03-1.68.03-2.49.03-37.53,0-74.95-8.68-108.62-25.16-6.05,5.86-12.42,11.44-19.09,16.68,33.7,19.79,72.04,31.21,111.17,33.03.54.03,1,.19,1.41.49.68.49,1.08,1.3,1.06,2.2-.08,1.36-1.22,2.44-2.58,2.44h-.11l-1.55-.08c-40.13-2.11-79.42-14.13-113.86-34.73-4.37,3.31-8.84,6.51-13.45,9.52-.05.03-.08.05-.14.08-.43.27-.92.41-1.41.41-.84,0-1.65-.41-2.14-1.17-.79-1.19-.43-2.77.73-3.55,22.26-14.48,41.73-32.29,57.86-52.68.11-.19.24-.38.41-.54,20.04-25.49,34.9-54.99,43.38-86.96h5.34Z"/>
    <path class="cls-2" d="m592.46,576c-32.83-3.53-64.06-13.55-92.81-29.77-1.23-.7-2.8-.26-3.5.97-.7,1.24-.26,2.8.97,3.5,29.36,16.57,61.25,26.8,94.78,30.41.1.01.19.01.28.01,1.29,0,2.41-.98,2.55-2.29.15-1.41-.87-2.67-2.27-2.83Z"/>
    <path class="cls-2" d="m572.97,603.95c-13.74-2.31-27.32-5.82-40.39-10.44-1.34-.48-2.8.23-3.28,1.56-.47,1.34.23,2.8,1.56,3.28,13.34,4.72,27.22,8.31,41.24,10.67.15.03.29.04.43.04,1.23,0,2.32-.89,2.53-2.14.23-1.4-.71-2.72-2.11-2.96Z"/>
    <path class="cls-2" d="m420.28,382.65s-.03.05-.05.08c-6.67,8.16-13.91,15.97-21.56,23.16-.08.08-.16.16-.24.19-.43.35-.98.52-1.49.52-.71,0-1.38-.27-1.87-.79-.98-1.03-.92-2.66.11-3.63.11-.08.19-.19.3-.3,6.34-6.02,12.45-12.47,18.17-19.22h6.64Z"/>
    <path class="cls-2" d="m458.08,382.65c-11.9,17.79-26.06,33.92-42.11,48.02-.05.05-.11.08-.16.14-.46.33-.98.49-1.52.49-.71,0-1.44-.3-1.93-.87-.95-1.06-.84-2.68.22-3.61.08-.08.16-.14.24-.24,14.75-12.96,27.87-27.74,38.99-43.93h6.26Z"/>
    <path class="cls-2" d="m493.33,382.65c-15.27,27.93-35.55,52.33-60.25,72.51-.03.03-.05.05-.11.08-.43.35-1,.52-1.52.52-.73,0-1.46-.33-1.98-.95-.9-1.08-.73-2.71.35-3.61.05-.05.14-.11.19-.16,23.37-19.14,42.71-42.14,57.43-68.38h5.88Z"/>
    <path class="cls-2" d="m526.57,382.65c-16.89,38.12-43.36,71.58-76.57,96.77,0,0-.03,0-.03.03-.46.33-.98.49-1.52.49-.79,0-1.55-.33-2.06-1-.84-1.14-.62-2.74.52-3.61.03-.03.08-.05.11-.08,31.86-24.21,57.38-56.18,73.89-92.6h5.67Z"/>
    <path class="cls-2" d="m557.83,382.65c-16.81,48.37-49.11,91.21-91.05,120.72-.03,0-.03.03-.05.03-.43.33-.95.46-1.46.46-.81,0-1.6-.38-2.11-1.08-.81-1.14-.52-2.77.62-3.58.03,0,.03-.03.05-.03,40.56-28.52,71.91-69.82,88.53-116.51h5.48Z"/>
  </g>
  <rect class="cls-1" x="1.25" y="765.3" width="347.02" height="347.02" rx="8.68" ry="8.68"/>
  <g>
    <path class="cls-2" d="m180.83,1112.32h-6.16c-1.06-1.57-2.09-3.12-3.12-4.58-.81-1.14-.54-2.74.62-3.58,1.17-.81,2.77-.52,3.58.62,1.68,2.39,3.36,4.93,5.07,7.54Z"/>
    <path class="cls-2" d="m216.11,1112.32h-5.86c-3.12-5.59-6.43-11.01-9.87-16.19-.79-1.19-.46-2.77.71-3.55,1.19-.79,2.79-.46,3.58.71,4.01,6.07,7.89,12.47,11.44,19.03Z"/>
    <path class="cls-2" d="m249.76,1112.32h-5.64c-5.31-11.55-11.55-22.72-18.57-33.22-.81-1.19-.49-2.77.71-3.58,1.17-.79,2.77-.46,3.55.71,7.59,11.39,14.34,23.51,19.96,36.09Z"/>
    <path class="cls-2" d="m282,1112.32h-5.48c-3.09-8.38-6.75-16.68-10.82-24.7-4.64-9.16-9.98-18.19-15.89-26.87-1.03-1.49-2.03-2.98-3.12-4.45-.84-1.14-.6-2.74.54-3.58,1.14-.84,2.74-.6,3.58.54,1.11,1.52,2.17,3.06,3.23,4.61,6.05,8.84,11.5,18.09,16.24,27.41,4.45,8.76,8.38,17.87,11.71,27.03Z"/>
    <path class="cls-2" d="m271.53,1030.33c5.04,6.53,9.73,13.39,14.1,20.42,16.92-24.62,37.93-45.8,62.64-62.88v6.24c-23.54,16.84-43.63,37.5-59.76,61.44,4.45,7.54,8.49,15.37,12.07,23.32,13.23-19.82,29.23-37.64,47.7-52.93v6.72c-17.54,15.02-32.73,32.43-45.23,51.79,3.77,8.92,7.02,18.06,9.65,27.17,10.03-16.32,21.96-31.48,35.57-45.01v7.29c-11.28,11.74-21.34,24.65-29.96,38.42h-10.74c-2.66-9.11-5.97-18.22-9.79-27.14-4.18-9.76-9.06-19.33-14.51-28.44-5.1-8.54-10.79-16.87-16.92-24.73-.68-.87-.73-2.09-.11-3.01,20.85-31.48,49.21-58.11,82.02-77.06v5.94c-30.5,18.14-56.97,43.09-76.74,72.45Z"/>
    <path class="cls-2" d="m348.26,917.74v5.69c-24.95,12.26-47.37,28.53-66.73,48.45-.49.52-1.17.79-1.84.79-.62,0-1.27-.24-1.79-.73-1-.98-1.03-2.6-.05-3.63,20.36-20.93,44.03-37.96,70.42-50.57Z"/>
    <path class="cls-2" d="m348.26,885.18v5.53c-4.26,1.68-8.51,3.52-12.72,5.5-8.19,3.82-16.21,8.13-23.81,12.8-8.24,5.02-16.24,10.6-23.78,16.57-.46.38-1.03.57-1.6.57-.35,0-.73-.08-1.06-.24-.9-.41-1.46-1.27-1.49-2.22-1.87-49.67-18.6-136.17-109.92-157.43-1.46-.33-2.96-.65-4.45-.95h19.96c79.34,26.38,96.61,104.31,99.3,153.23,6.13-4.66,12.53-9.03,19.06-13.07-2.93-82.24-37.2-121.29-65.54-139.56-.24-.16-.49-.38-.62-.6h8.81c27.82,20.06,58.87,59.71,62.36,137.12,6.16-3.63,12.55-7.02,19.09-10.14-.65-38.12-8.84-90.48-43.52-126.76-.08-.08-.14-.14-.19-.22h6.94c32.62,36.52,40.92,86.93,41.87,124.65,3.74-1.65,7.51-3.28,11.31-4.77Z"/>
    <path class="cls-2" d="m348.26,797.41v17.6c-4.83-18.76-12.01-35.49-21.34-49.7h6.1c6.02,9.68,11.14,20.44,15.24,32.1Z"/>
  </g>
  <g>
    <path class="cls-1" d="m475.47,194.19c0,9.44-2.47,17.05-7.35,22.85-4.93,5.81-11.49,8.73-19.64,8.73h-20.68c-8.19,0-14.75-3.05-19.72-9.19-4.97-6.14-7.48-14.25-7.48-24.31v-37.52c0-10.11,2.59-18.22,7.77-24.31,5.18-6.14,11.91-9.19,20.18-9.19h20.3c7.9,0,14.25,2.59,19.05,7.85,4.81,5.22,7.19,12.12,7.19,20.64h17.8c0-8.77-1.8-16.59-5.47-23.35-3.64-6.77-8.77-12.03-15.5-15.79-6.68-3.76-14.37-5.64-23.06-5.64h-20.3c-9.19,0-17.25,2.05-24.19,6.14-6.98,4.09-12.37,9.86-16.21,17.34-3.8,7.44-5.72,16.08-5.72,25.9v38.31c0,9.82,1.88,18.47,5.64,25.94,3.76,7.48,9.11,13.24,16,17.34,6.89,4.09,14.79,6.1,23.73,6.1h20.68c8.94,0,16.79-1.96,23.56-5.93,6.73-3.93,11.99-9.57,15.67-16.84,3.72-7.27,5.56-15.63,5.56-25.07h-17.8Z"/>
    <path class="cls-1" d="m631.3,122.37v-15.88h-94v119.65c0,4.47,1.34,7.98,3.93,10.53,2.63,2.55,6.18,3.84,10.65,3.84h79.42v-15.92h-75.79v-44.79h70.06v-15.71h-70.06v-41.74h75.79Z"/>
    <path class="cls-1" d="m672.29,183.66v15.67h54.77v-15.67h-54.77Z"/>
  </g>
  <g>
    <path class="cls-1" d="m95.34,587.94c-3.68-11.86-9.32-20.05-16.84-24.52v-.17c7.14-2.3,12.78-6.02,16.96-11.11,4.14-5.1,6.22-10.99,6.22-17.63v-13.79c0-9.44-3.18-17.05-9.48-22.85-6.35-5.81-14.66-8.73-24.98-8.73H0v134.02h18.17v-53.81h36.76c4.97,0,9.44,1.75,13.33,5.18,3.89,3.47,6.73,8.19,8.52,14.16l10.32,34.47h18.76l-10.53-35.22Zm-33.09-34.68H18.17v-48.04h48.63c5.01,0,9.02,1.42,12.07,4.22,3.09,2.8,4.59,6.52,4.59,11.11v13.95c0,5.64-1.92,10.15-5.85,13.62-3.89,3.43-9.02,5.14-15.37,5.14Z"/>
    <path class="cls-1" d="m209.85,498.16c-2.3-6.02-6.18-9.02-11.7-9.02h-8.23l-51.89,134.02h18.97l13.03-35.22h55.9l13.2,35.22h18.76l-48.04-125Zm-34.47,74.45l22.6-60.49h.17l22.39,60.49h-45.16Z"/>
    <path class="cls-1" d="m293.49,566.3v15.71h54.77v-15.71h-54.77Z"/>
  </g>
  <g>
    <path class="cls-1" d="m566.17,773.66l-45.37,85.94-46.54-85.94h-16.84v134.02h18.01v-99.97l40.4,73.53h5.14c1.8,0,3.38-.58,4.72-1.71,1.34-1.17,2.76-3.13,4.3-5.93l35.22-65.88v99.97h17.8v-134.02h-16.84Z"/>
    <path class="cls-1" d="m636.23,773.66v134.02h18.21v-134.02h-18.21Z"/>
  </g>
  <g>
    <path class="cls-1" d="m518.15,1056.09c0,9.48-2.47,17.09-7.35,22.89-4.93,5.81-11.49,8.73-19.64,8.73h-20.68c-8.19,0-14.75-3.09-19.72-9.19-4.97-6.14-7.48-14.25-7.48-24.31v-37.56c0-10.07,2.59-18.17,7.77-24.31,5.14-6.1,11.91-9.19,20.18-9.19h20.3c7.9,0,14.25,2.63,19.05,7.85,4.81,5.26,7.19,12.16,7.19,20.68h17.8c0-8.82-1.8-16.59-5.47-23.35-3.64-6.77-8.77-12.03-15.5-15.79-6.68-3.76-14.37-5.64-23.06-5.64h-20.3c-9.19,0-17.25,2.05-24.19,6.14-6.98,4.05-12.37,9.86-16.21,17.3-3.8,7.48-5.72,16.13-5.72,25.94v38.31c0,9.82,1.88,18.47,5.64,25.94,3.76,7.44,9.11,13.24,16,17.34,6.89,4.05,14.79,6.1,23.73,6.1h20.68c8.94,0,16.79-1.96,23.56-5.93,6.73-3.97,11.99-9.57,15.67-16.84,3.72-7.27,5.56-15.63,5.56-25.11h-17.8Z"/>
    <path class="cls-1" d="m670.64,1039.92c-5.68-5.18-13.83-8.65-24.4-10.44l-34.47-5.93c-5.35-1-9.48-2.84-12.37-5.56-2.84-2.67-4.3-6.06-4.3-10.11v-8.65c0-4.97,2.01-8.9,6.06-11.74,4.01-2.88,9.28-4.34,15.79-4.34h21.64c6.1,0,11.03,1.96,14.71,5.85,3.72,3.89,5.56,9.02,5.56,15.42h18.01c0-7.39-1.59-13.95-4.76-19.64-3.22-5.64-7.73-10.07-13.54-13.2-5.81-3.13-12.45-4.68-19.97-4.68h-21.64c-12.03,0-21.68,2.88-29.04,8.69-7.31,5.81-10.99,13.54-10.99,23.1v10.53c0,8.02,2.76,14.75,8.31,20.1,5.56,5.35,13.45,8.86,23.65,10.53l34.84,5.72c5.51.92,9.73,2.72,12.74,5.39,3.01,2.67,4.51,5.97,4.51,9.94v10.36c0,4.97-2.13,8.94-6.35,11.95-4.18,3.01-9.82,4.51-16.84,4.51h-21.26c-7.02,0-12.66-2.26-16.92-6.73s-6.43-10.44-6.43-18.01h-17.8c0,12.53,3.72,22.48,11.11,29.87,7.39,7.44,17.3,11.11,29.66,11.11h22.02c12.41,0,22.31-2.92,29.79-8.82,7.48-5.85,11.2-13.66,11.2-23.35v-12.45c0-7.77-2.84-14.25-8.52-19.43Z"/>
  </g>
</svg>